<?xml version="1.0" encoding="UTF-8"?>
<svg width="72px" height="72px" viewBox="0 0 72 72" version="1.1" xmlns="http://www.w3.org/2000/svg" xmlns:xlink="http://www.w3.org/1999/xlink">
    <!-- Generator: Sketch 55.1 (78136) - https://sketchapp.com -->
    <title>Logo</title>
    <desc>Created with Sketch.</desc>
    <defs>
        <polygon id="path-1" points="0 72 72 72 72 0 0 0"></polygon>
    </defs>
    <g id="Symbols" stroke="none" stroke-width="1" fill="none" fill-rule="evenodd">
        <g id="Mobile-Navigation" transform="translate(-30.000000, -21.000000)">
            <g id="Navigation">
                <g id="Logo" transform="translate(30.000000, 21.000000)">
                    <polygon id="Fill-1" fill="#FFFFFF" points="0 72 72 72 72 0 0 0"></polygon>
                    <g id="Group-10">
                        <path d="M17.606075,45.3203 C17.606075,50.00955 18.510325,51.30955 21.787075,51.30955 L24.273575,51.30955 C29.188575,51.30955 32.240075,50.1228 34.669325,47.1848 C36.816825,44.5853 37.890075,41.2518 37.890075,36.9013 C37.890075,30.9123 35.574075,25.94055 31.674575,23.34105 C29.414325,21.87155 26.759075,21.2503 22.408575,21.2503 L17.606075,21.2503 L17.606075,45.3203 Z M9.583325,51.5923 L9.978825,51.5923 C12.295075,51.5923 13.255575,50.1228 13.255575,46.4498 L13.255575,45.4333 L13.255575,27.2963 L13.255575,26.2793 C13.255575,22.60655 12.295075,21.13805 9.978825,21.13805 L9.583325,21.13805 L9.583325,20.17755 L22.634825,20.17755 C26.759075,20.17755 28.115825,20.29005 30.205575,20.7988 C31.505075,21.13805 32.804575,21.58955 34.047825,22.21105 C39.528575,25.03605 42.862575,30.57405 42.862575,36.9013 C42.862575,43.68155 39.302825,48.9358 33.143825,51.19605 C30.601825,52.1573 28.001825,52.5528 24.386075,52.5528 L9.583325,52.5528 L9.583325,51.5923 Z" id="Fill-2" fill="#1C1C1C"></path>
                        <polygon id="Fill-4" fill="#FFFFFF" points="40.1648 26.397225 35.1073 40.999975 47.00305 40.999975"></polygon>
                        <path d="M40.11035,37.550425 L44.6301,23.821175 L44.74235,23.821175 L49.26335,37.550425 L40.11035,37.550425 Z M61.29785,51.619925 L60.4506,51.563175 C58.6981,51.450925 58.0211,50.603175 56.7211,46.703425 L47.79385,19.922675 L44.4036,19.922675 L37.7751,39.557425 L39.4786,39.557425 L39.48835,39.528675 L49.94085,39.528675 L52.53985,47.382175 C53.04885,48.907925 53.16185,49.246175 53.16185,49.755425 C53.16185,50.998675 52.2016,51.676925 50.39285,51.676925 L50.39285,52.637425 L61.7501,52.637425 L61.7501,51.676925 L61.29785,51.619925 Z" id="Fill-6" fill="#1C1C1C"></path>
                        <mask id="mask-2" fill="white">
                            <use xlink:href="#path-1"></use>
                        </mask>
                        <g id="Clip-9"></g>
                        <polygon id="Fill-8" fill="#FFFFFF" mask="url(#mask-2)" points="36.78675 41.50675 42.99225 41.50675 42.99225 39.5285 36.78675 39.5285"></polygon>
                    </g>
                </g>
            </g>
        </g>
    </g>
</svg>